<svg width="129" height="128" viewBox="0 0 129 128" fill="none" xmlns="http://www.w3.org/2000/svg">
<g filter="url(#filter0_d_259_3819)">
<circle cx="64.5" cy="61.5" r="61.5" fill="#141315"/>
<circle cx="64.1985" cy="61.1985" r="54.5662" fill="#1F568F"/>
<path d="M64.7656 68.0333C62.3524 68.0353 59.9763 67.4394 57.8498 66.2987C55.7232 65.1581 53.9124 63.5082 52.5792 61.4968L56.0599 59.1832C57.0129 60.6197 58.3066 61.798 59.8256 62.6131C61.3446 63.4282 63.0417 63.8548 64.7656 63.8548C66.4895 63.8548 68.1866 63.4282 69.7056 62.6131C71.2246 61.798 72.5183 60.6197 73.4713 59.1832L76.952 61.4968C75.6188 63.5082 73.808 65.1581 71.6814 66.2987C69.5548 67.4394 67.1788 68.0353 64.7656 68.0333V68.0333Z" fill="white"/>
<path d="M73.1225 45.0519C72.2961 45.0519 71.4882 45.297 70.8011 45.7561C70.114 46.2152 69.5784 46.8678 69.2622 47.6313C68.9459 48.3948 68.8632 49.235 69.0244 50.0455C69.1856 50.856 69.5836 51.6005 70.1679 52.1849C70.7523 52.7693 71.4968 53.1672 72.3073 53.3285C73.1179 53.4897 73.958 53.4069 74.7215 53.0907C75.485 52.7744 76.1376 52.2389 76.5967 51.5517C77.0559 50.8646 77.3009 50.0567 77.3009 49.2303C77.3064 48.6801 77.202 48.1343 76.9939 47.6249C76.7858 47.1155 76.4783 46.6527 76.0892 46.2637C75.7001 45.8746 75.2373 45.567 74.7279 45.3589C74.2185 45.1509 73.6727 45.0465 73.1225 45.0519V45.0519Z" fill="white"/>
<path d="M56.4088 45.0519C55.5824 45.0519 54.7745 45.297 54.0874 45.7561C53.4002 46.2152 52.8647 46.8678 52.5484 47.6313C52.2322 48.3948 52.1494 49.235 52.3106 50.0455C52.4719 50.856 52.8698 51.6005 53.4542 52.1849C54.0385 52.7693 54.7831 53.1672 55.5936 53.3285C56.4041 53.4897 57.2443 53.4069 58.0078 53.0907C58.7713 52.7744 59.4239 52.2389 59.883 51.5517C60.3421 50.8646 60.5872 50.0567 60.5872 49.2303C60.5926 48.6801 60.4882 48.1343 60.2802 47.6249C60.0721 47.1155 59.7645 46.6527 59.3754 46.2637C58.9863 45.8746 58.5236 45.567 58.0142 45.3589C57.5048 45.1509 56.959 45.0465 56.4088 45.0519V45.0519Z" fill="white"/>
<path d="M68.392 91.0146L64.7656 88.9254L73.1224 74.3009H85.6577C86.2067 74.3018 86.7504 74.1944 87.2578 73.9847C87.7652 73.7751 88.2262 73.4673 88.6144 73.0792C89.0026 72.691 89.3103 72.23 89.5199 71.7226C89.7296 71.2152 89.837 70.6715 89.8361 70.1225V40.8735C89.837 40.3245 89.7296 39.7808 89.5199 39.2734C89.3103 38.766 89.0026 38.305 88.6144 37.9168C88.2262 37.5286 87.7652 37.2209 87.2578 37.0112C86.7504 36.8016 86.2067 36.6942 85.6577 36.6951H43.8734C43.3245 36.6942 42.7807 36.8016 42.2733 37.0112C41.766 37.2209 41.305 37.5286 40.9168 37.9168C40.5286 38.305 40.2208 38.766 40.0112 39.2734C39.8015 39.7808 39.6941 40.3245 39.695 40.8735V70.1225C39.6941 70.6715 39.8015 71.2152 40.0112 71.7226C40.2208 72.23 40.5286 72.691 40.9168 73.0792C41.305 73.4673 41.766 73.7751 42.2733 73.9847C42.7807 74.1944 43.3245 74.3018 43.8734 74.3009H62.6764V78.4793H43.8734C42.776 78.4795 41.6892 78.2635 40.6752 77.8436C39.6612 77.4237 38.7399 76.8081 37.9638 76.0321C37.1878 75.256 36.5722 74.3347 36.1523 73.3207C35.7324 72.3067 35.5164 71.22 35.5166 70.1225V40.8735C35.5163 39.776 35.7322 38.6891 36.1521 37.6751C36.5719 36.661 37.1875 35.7397 37.9635 34.9636C38.7396 34.1875 39.661 33.572 40.675 33.1521C41.6891 32.7323 42.7759 32.5163 43.8734 32.5167H85.6577C86.7552 32.5163 87.8421 32.7323 88.8561 33.1521C89.8701 33.572 90.7915 34.1875 91.5676 34.9636C92.3437 35.7397 92.9592 36.661 93.3791 37.6751C93.7989 38.6891 94.0149 39.776 94.0145 40.8735V70.1225C94.0147 71.22 93.7987 72.3067 93.3788 73.3207C92.9589 74.3347 92.3433 75.256 91.5673 76.0321C90.7913 76.8081 89.8699 77.4237 88.8559 77.8436C87.8419 78.2635 86.7552 78.4795 85.6577 78.4793H75.5555L68.392 91.0146Z" fill="white"/>
</g>
<defs>
<filter id="filter0_d_259_3819" x="0.588235" y="0" width="127.824" height="127.824" filterUnits="userSpaceOnUse" color-interpolation-filters="sRGB">
<feFlood flood-opacity="0" result="BackgroundImageFix"/>
<feColorMatrix in="SourceAlpha" type="matrix" values="0 0 0 0 0 0 0 0 0 0 0 0 0 0 0 0 0 0 127 0" result="hardAlpha"/>
<feOffset dy="2.41176"/>
<feGaussianBlur stdDeviation="1.20588"/>
<feComposite in2="hardAlpha" operator="out"/>
<feColorMatrix type="matrix" values="0 0 0 0 0 0 0 0 0 0 0 0 0 0 0 0 0 0 0.25 0"/>
<feBlend mode="normal" in2="BackgroundImageFix" result="effect1_dropShadow_259_3819"/>
<feBlend mode="normal" in="SourceGraphic" in2="effect1_dropShadow_259_3819" result="shape"/>
</filter>
</defs>
</svg>
