<svg width="287" height="287" viewBox="0 0 287 287" fill="none" xmlns="http://www.w3.org/2000/svg">
<circle cx="143.5" cy="143.5" r="143.5" fill="#71797E"/>
<g clip-path="url(#clip0_17_194)">
<path d="M143.5 10.5C70.0429 10.5 10.5 70.0438 10.5 143.499C10.5 216.96 70.0439 276.5 143.5 276.5C216.956 276.5 276.5 216.96 276.5 143.5C276.5 70.0449 216.957 10.5 143.5 10.5Z" fill="#24578E" stroke="#71797E"/>
<path d="M71.6608 114.084C71.4408 69.82 93.7098 44.075 132.808 44.075H143.498H154.189C193.291 44.075 215.564 69.82 215.34 114.084M76.0668 122.571C76.0668 86.579 106.255 57.409 143.498 57.409C180.741 57.409 210.934 86.579 210.934 122.571C210.934 136.918 198.049 189.645 196.084 196.57C188.554 223.085 172.367 242.13 143.498 242.13C114.702 242.13 98.2078 222.87 90.7878 196.121C88.9008 189.324 76.0668 136.918 76.0668 122.571Z" fill="#808076"/>
<path d="M71.6608 114.084C71.4408 69.82 93.7098 44.075 132.808 44.075H143.498H154.189C193.291 44.075 215.564 69.82 215.34 114.084M76.0668 122.571C76.0668 86.579 106.255 57.409 143.498 57.409C180.741 57.409 210.934 86.579 210.934 122.571C210.934 136.918 198.049 189.645 196.084 196.57C188.554 223.085 172.367 242.13 143.498 242.13C114.702 242.13 98.2078 222.87 90.7878 196.121C88.9008 189.324 76.0668 136.918 76.0668 122.571V122.571Z" stroke="#966F33" stroke-width="7.816" stroke-miterlimit="3.864"/>
<path d="M208.693 140.324C210.044 132.775 210.933 126.345 210.933 122.572C210.933 120.735 208.963 117.121 208.963 117.121V95.8311H221.701V114.464C239.881 120.895 246.379 131.457 243.215 146.824L236.853 177.731C234.297 190.144 224.705 196.524 210.48 196.524H196.098C196.996 193.35 200.046 181.125 203.152 167.292L200.357 166.403C195.237 164.782 195.15 160.119 195.869 156.72L197.963 146.895C198.654 143.643 200.683 139.104 205.891 139.901L208.693 140.324ZM83.8529 167.288C86.9359 181.02 89.9489 193.093 90.7879 196.121L90.9009 196.524H76.5159C62.2939 196.524 52.7029 190.144 50.1469 177.732L43.7849 146.824C40.6199 131.457 47.1189 120.895 65.2989 114.464V95.8321H78.0359V117.12C78.0359 117.12 76.0659 120.735 76.0659 122.571C76.0659 126.354 76.9549 132.785 78.3109 140.325L81.1039 139.903C86.3169 139.106 88.3459 143.645 89.0369 146.898L91.1269 156.723C91.8499 160.121 91.7629 164.784 86.6369 166.406L83.8529 167.288Z" fill="black"/>
<path d="M202.464 116.536H199.374C197.943 115.69 196.422 115.008 194.839 114.5C189.849 112.85 183.261 112 175.25 112C167.239 112 160.651 112.85 155.673 114.5C151.687 115.83 149.932 117.295 149.365 117.865C147.535 116.99 145.532 116.536 143.503 116.536C141.474 116.536 139.471 116.99 137.64 117.865C137.073 117.298 135.319 115.83 131.333 114.5C126.349 112.85 119.761 112 111.75 112C103.739 112 97.1507 112.85 92.1727 114.5C90.5897 115.008 89.0684 115.69 87.637 116.536H84.5357C83.3328 116.536 82.1791 117.014 81.3285 117.864C80.4779 118.715 80 119.868 80 121.071C80 122.274 80.4779 123.428 81.3285 124.279C82.1791 125.129 83.3328 125.607 84.5357 125.607H84.5839C84.8674 138.494 86.4095 146.239 89.7178 151.753C91.7901 155.313 94.967 158.099 98.7665 159.69C102.234 161.176 106.483 161.899 111.75 161.899C118.596 161.899 128.328 160.847 133.782 151.758C136.526 147.183 138.06 141.074 138.661 131.767C138.861 131.249 138.963 130.698 138.964 130.143C138.964 128.94 139.442 127.786 140.293 126.936C141.143 126.085 142.297 125.607 143.5 125.607C144.703 125.607 145.857 126.085 146.707 126.936C147.558 127.786 148.036 128.94 148.036 130.143C148.037 130.696 148.14 131.245 148.339 131.762C148.94 141.068 150.474 147.177 153.218 151.753C155.29 155.313 158.467 158.099 162.267 159.69C165.734 161.176 169.983 161.899 175.25 161.899C182.096 161.899 191.828 160.847 197.282 151.758C200.59 146.245 202.138 138.5 202.416 125.613H202.464C203.667 125.613 204.821 125.135 205.672 124.284C206.522 123.434 207 122.28 207 121.077C207 119.874 206.522 118.72 205.672 117.87C204.821 117.019 203.667 116.541 202.464 116.541V116.536Z" fill="black"/>
</g>
<defs>
<clipPath id="clip0_17_194">
<rect width="265" height="265" fill="white" transform="translate(11 11)"/>
</clipPath>
</defs>
</svg>
